<svg xmlns="http://www.w3.org/2000/svg" xmlns:xlink="http://www.w3.org/1999/xlink" width="85" height="86.014" viewBox="0 0 85 86.014">
  <defs>
    <clipPath id="clip-path">
      <rect id="Rectangle_430838" data-name="Rectangle 430838" width="76.219" height="76.219" transform="translate(822.732 8179.871)" fill="#fff" stroke="#707070" stroke-width="1"/>
    </clipPath>
  </defs>
  <g id="Group_1245450" data-name="Group 1245450" transform="translate(-813.951 -8170.076)">
    <g id="Rectangle_430837" data-name="Rectangle 430837" transform="translate(813.951 8170.077)" fill="#f7f700" stroke="#acac00" stroke-width="3">
      <rect width="70" height="70" rx="10" stroke="none"/>
      <rect x="1.5" y="1.5" width="67" height="67" rx="8.5" fill="none"/>
    </g>
    <g id="Mask_Group_1099509" data-name="Mask Group 1099509" clip-path="url(#clip-path)">
      <g id="accounting_10269903" transform="translate(820.191 8177.331)">
        <g id="Group_1250389" data-name="Group 1250389">
          <path id="Path_1334139" data-name="Path 1334139" d="M4.421,2.541H44.79L58.141,15.892V74.167H4.421Z" fill="#e6f7db" fill-rule="evenodd"/>
          <path id="Path_1334140" data-name="Path 1334140" d="M44.79,2.541,58.141,15.892H44.79Z" fill="#bac8b1" fill-rule="evenodd"/>
          <path id="Path_1334141" data-name="Path 1334141" d="M12.63,25.164H21.2a.711.711,0,0,1,.709.709v8.566a.711.711,0,0,1-.709.709H12.63a.711.711,0,0,1-.709-.709V25.873A.711.711,0,0,1,12.63,25.164Z" fill="#fc0005" fill-rule="evenodd"/>
          <path id="Path_1334142" data-name="Path 1334142" d="M19.6,48.484H76.879V78.759H19.6Z" fill="#5eac24" fill-rule="evenodd"/>
          <path id="Path_1334143" data-name="Path 1334143" d="M29.3,53.66H67.171A3.94,3.94,0,0,0,71.112,57.6V69.643a3.941,3.941,0,0,0-3.941,3.941H29.3a3.941,3.941,0,0,0-3.941-3.941V57.6A3.941,3.941,0,0,0,29.3,53.66Z" fill="#e6f7db" fill-rule="evenodd"/>
        </g>
        <path id="Path_1334144" data-name="Path 1334144" d="M47.061,56.854a1.08,1.08,0,1,1,2.16,0v1.273h1.044a1.08,1.08,0,0,1,0,2.16H47.128a.8.8,0,0,0,0,1.6h1.789a2.962,2.962,0,0,1,.3,5.909v1.288a1.08,1.08,0,1,1-2.16,0V67.815H45.329a1.08,1.08,0,0,1,0-2.16h3.588a.8.8,0,0,0,.566-1.368,1.029,1.029,0,0,0-.87-.236H47.128a2.962,2.962,0,0,1-.067-5.923ZM19.113,74.3v3.383a1.08,1.08,0,0,0,1.08,1.08H75.852a1.08,1.08,0,0,0,1.08-1.08V48.262a1.08,1.08,0,0,0-1.08-1.08H58.725V16.594a1.08,1.08,0,0,0-.195-.619C58.373,15.752,46.7,4.121,45.443,2.864a1.075,1.075,0,0,0-.771-.324H5.448a1.08,1.08,0,0,0-1.08,1.08v69.6a1.08,1.08,0,0,0,1.08,1.08H19.113ZM56.565,47.182V17.674H44.672a1.08,1.08,0,0,1-1.08-1.08V4.7H6.528V72.137H19.113V48.262a1.08,1.08,0,0,1,1.08-1.08ZM55.038,15.514H45.752V6.228ZM13.216,16.635a1.08,1.08,0,0,1,0-2.16H24.305a1.08,1.08,0,0,1,0,2.16Zm0,4.5a1.08,1.08,0,0,1,0-2.16H33.1a1.08,1.08,0,0,1,0,2.16Zm.208,3.384h8.323a1.778,1.778,0,0,1,1.769,1.769v8.323a1.778,1.778,0,0,1-1.769,1.769H13.424a1.778,1.778,0,0,1-1.769-1.769V26.292a1.778,1.778,0,0,1,1.769-1.769Zm7.932,2.16v7.541H13.815V26.683Zm-2.668,1.848a1.08,1.08,0,0,1,1.527,1.527l-2.24,2.24a1.338,1.338,0,0,1-1.9,0l0,0-.757-.757a1.08,1.08,0,0,1,1.527-1.527l.179.179Zm9.7,1.144a1.08,1.08,0,1,1,0-2.16H39.605a1.08,1.08,0,0,1,0,2.16Zm-.169,3.715a1.08,1.08,0,0,1,0-2.16h9.766a1.08,1.08,0,1,1,0,2.16ZM13.216,12.29a1.08,1.08,0,0,1,0-2.16h5.241a1.08,1.08,0,0,1,0,2.16ZM74.772,49.342h-53.5V76.6h53.5ZM29.625,52.211a1.08,1.08,0,0,0-1.08,1.08A2.749,2.749,0,0,1,25.8,56.04a1.08,1.08,0,0,0-1.08,1.08v11.7A1.08,1.08,0,0,0,25.8,69.9a2.749,2.749,0,0,1,2.749,2.749,1.08,1.08,0,0,0,1.08,1.08H66.42a1.08,1.08,0,0,0,1.08-1.08A2.749,2.749,0,0,1,70.248,69.9a1.08,1.08,0,0,0,1.08-1.08V57.12a1.08,1.08,0,0,0-1.08-1.08A2.749,2.749,0,0,1,67.5,53.291a1.08,1.08,0,0,0-1.08-1.08Zm35.834,2.16H30.586a4.916,4.916,0,0,1-3.71,3.709v9.78a4.916,4.916,0,0,1,3.71,3.709H65.459a4.916,4.916,0,0,1,3.709-3.709V58.08A4.916,4.916,0,0,1,65.459,54.371Z" fill-rule="evenodd"/>
      </g>
    </g>
  </g>
</svg>
