<svg xmlns="http://www.w3.org/2000/svg" xmlns:xlink="http://www.w3.org/1999/xlink" width="85" height="86.013" viewBox="0 0 85 86.013">
  <defs>
    <clipPath id="clip-path">
      <rect id="Rectangle_430838" data-name="Rectangle 430838" width="76.219" height="76.219" transform="translate(822.732 8179.871)" fill="#fff" stroke="#707070" stroke-width="1"/>
    </clipPath>
  </defs>
  <g id="Group_1247049" data-name="Group 1247049" transform="translate(-813.951 -8170.077)">
    <g id="Rectangle_430837" data-name="Rectangle 430837" transform="translate(813.951 8170.077)" fill="#f7f700" stroke="#acac00" stroke-width="3">
      <rect width="70" height="70" rx="10" stroke="none"/>
      <rect x="1.5" y="1.5" width="67" height="67" rx="8.5" fill="none"/>
    </g>
    <g id="Mask_Group_1099515" data-name="Mask Group 1099515" clip-path="url(#clip-path)">
      <g id="Expenditure" transform="translate(817.969 8174.427)">
        <path id="Path_1334263" data-name="Path 1334263" d="M78.941,62.608V74.858a5.478,5.478,0,0,1-1.592,3.852,5.551,5.551,0,0,1-2.491,1.415A4.977,4.977,0,0,1,73.5,80.3a5.443,5.443,0,0,1-5.444-5.444V62.608Z" fill="gray"/>
        <path id="Path_1334264" data-name="Path 1334264" d="M78.941,62.608V74.858a5.478,5.478,0,0,1-1.592,3.852,5.551,5.551,0,0,1-2.491,1.415,5.433,5.433,0,0,1-4.083-5.267V62.608Z" fill="#b3b3b3"/>
        <path id="Path_1334265" data-name="Path 1334265" d="M73.5,80.3H19.055V20.416c0-.218,0-.436.014-.653a13.614,13.614,0,0,1,13.6-12.957H68.052V74.858A5.443,5.443,0,0,0,73.5,80.3Z" fill="#e6e6e6"/>
        <path id="Path_1334266" data-name="Path 1334266" d="M34.435,6.887a10.9,10.9,0,0,0-3.5,9.936l.367,2.232a10.869,10.869,0,0,0-12.236.708,13.614,13.614,0,0,1,13.6-12.957H34.53Z" fill="#b3b3b3"/>
        <path id="Path_1334267" data-name="Path 1334267" d="M21.777,39.47V36.748a8.922,8.922,0,0,0-8.6,6.558L10.888,51.72v-11.5A8.911,8.911,0,0,1,19.8,31.3h1.974V28.582l5.784,4.628,1.021.817Z" fill="#b61d1f"/>
        <path id="Path_1334268" data-name="Path 1334268" d="M23.138,36.748V34.026a13.474,13.474,0,0,0-6.764,1.824,8.944,8.944,0,0,0-3.2,4.736L10.888,49V40.219A8.911,8.911,0,0,1,19.8,31.3h1.974V28.582l5.784,4.628Z" fill="#e13b36"/>
        <path id="Path_1334269" data-name="Path 1334269" d="M59.886,17.694V14.972h1.361a1.361,1.361,0,1,0,0-2.722H59.886a1.361,1.361,0,0,0-2.722,0,4.083,4.083,0,0,0,0,8.166v2.722H55.8a1.361,1.361,0,1,0,0,2.722h1.361a1.361,1.361,0,1,0,2.722,0,4.083,4.083,0,1,0,0-8.166ZM55.8,16.333a1.362,1.362,0,0,1,1.361-1.361v2.722A1.362,1.362,0,0,1,55.8,16.333Zm4.083,6.805V20.416a1.361,1.361,0,0,1,0,2.722Z" fill="#419e49"/>
        <g id="Group_1250400" data-name="Group 1250400">
          <path id="Path_1334270" data-name="Path 1334270" d="M28.582,25.86h5.444V31.3H28.582Z" fill="#b3b3b3"/>
          <path id="Path_1334271" data-name="Path 1334271" d="M28.582,38.109h5.444v5.444H28.582Z" fill="#b3b3b3"/>
          <path id="Path_1334272" data-name="Path 1334272" d="M46.276,28.582H39.47a1.361,1.361,0,0,1,0-2.722h6.805a1.361,1.361,0,1,1,0,2.722Z" fill="#b3b3b3"/>
          <path id="Path_1334273" data-name="Path 1334273" d="M58.525,32.665H39.47a1.361,1.361,0,0,1,0-2.722H58.525a1.361,1.361,0,1,1,0,2.722Z" fill="#b3b3b3"/>
          <path id="Path_1334274" data-name="Path 1334274" d="M46.276,40.831H39.47a1.361,1.361,0,0,1,0-2.722h6.805a1.361,1.361,0,1,1,0,2.722Z" fill="#b3b3b3"/>
          <path id="Path_1334275" data-name="Path 1334275" d="M58.525,44.915H39.47a1.361,1.361,0,0,1,0-2.722H58.525a1.361,1.361,0,1,1,0,2.722Z" fill="#b3b3b3"/>
          <path id="Path_1334276" data-name="Path 1334276" d="M46.276,53.081H39.47a1.361,1.361,0,0,1,0-2.722h6.805a1.361,1.361,0,0,1,0,2.722Z" fill="#b3b3b3"/>
          <path id="Path_1334277" data-name="Path 1334277" d="M58.525,57.164H39.47a1.361,1.361,0,0,1,0-2.722H58.525a1.361,1.361,0,1,1,0,2.722Z" fill="#b3b3b3"/>
          <path id="Path_1334278" data-name="Path 1334278" d="M46.276,65.33H44.915a1.361,1.361,0,1,1,0-2.722h1.361a1.361,1.361,0,1,1,0,2.722Z" fill="#b3b3b3"/>
          <path id="Path_1334279" data-name="Path 1334279" d="M58.525,69.414H44.915a1.361,1.361,0,1,1,0-2.722h13.61a1.361,1.361,0,1,1,0,2.722Z" fill="#b3b3b3"/>
        </g>
        <path id="Path_1334280" data-name="Path 1334280" d="M39.076,61.6,24.757,69.414l-8.384,4.573-2.491-4.573L8.561,59.641l4.546-2.477,18.156-9.895,5.39,9.895Z" fill="#2c7c33"/>
        <path id="Path_1334281" data-name="Path 1334281" d="M33.536,59.981,16.809,69.1,12.9,61.928l8.752-4.764,5.594-3.049a2.72,2.72,0,0,0,3.688,1.075l1.075,1.974Z" fill="#4aae50"/>
        <path id="Path_1334282" data-name="Path 1334282" d="M39.076,61.6,24.757,69.414H13.883L8.561,59.641l4.546-2.477H36.653Z" fill="#195d23"/>
        <path id="Path_1334283" data-name="Path 1334283" d="M33.536,59.981,16.809,69.1,12.9,61.928l8.752-4.764H32.012Z" fill="#419e49"/>
        <path id="Path_1334284" data-name="Path 1334284" d="M39.47,61.247V77.58A2.73,2.73,0,0,1,36.748,80.3H9.527A2.73,2.73,0,0,1,6.805,77.58V61.247a2.729,2.729,0,0,1,2.722-2.722H36.748a2.73,2.73,0,0,1,2.722,2.722Z" fill="#5c3f37"/>
        <path id="Path_1334285" data-name="Path 1334285" d="M39.47,61.247V77.212a2.715,2.715,0,0,1-1.361.367H10.888a2.73,2.73,0,0,1-2.722-2.722V58.893a2.715,2.715,0,0,1,1.361-.367H36.748a2.73,2.73,0,0,1,2.722,2.722Z" fill="#775445"/>
        <path id="Path_1334286" data-name="Path 1334286" d="M39.47,65.33V73.5H27.221a4.089,4.089,0,0,1-4.083-4.083,2.818,2.818,0,0,1,.068-.681,4.058,4.058,0,0,1,4.015-3.4Z" fill="#8d6e63"/>
        <path id="Path_1334287" data-name="Path 1334287" d="M39.47,65.33v6.805H27.221a4.074,4.074,0,0,1-2.886-1.2,4,4,0,0,1-1.129-2.2,4.058,4.058,0,0,1,4.015-3.4Z" fill="#a1877e"/>
        <circle id="Ellipse_12491" data-name="Ellipse 12491" cx="1.361" cy="1.361" r="1.361" transform="translate(25.86 68.052)" fill="#ecedef"/>
        <path id="Path_1334288" data-name="Path 1334288" d="M78.941,61.247H69.414V6.805a1.361,1.361,0,0,0-1.361-1.361H32.665A14.978,14.978,0,0,0,17.739,19.528a1.312,1.312,0,0,0-.01.21c-.01.226-.034.449-.034.678v9.747A10.292,10.292,0,0,0,9.527,40.219v11.5a1.361,1.361,0,0,0,2.674.357l2.285-8.407a7.564,7.564,0,0,1,2.708-4.012c.161-.122.33-.226.5-.334V53.112l-7.437,4.052H9.527a4.088,4.088,0,0,0-4.083,4.083V77.58a4.088,4.088,0,0,0,4.083,4.083H73.5A6.813,6.813,0,0,0,80.3,74.858V62.608A1.361,1.361,0,0,0,78.941,61.247ZM31.481,8.226a12.128,12.128,0,0,0-1.933,8.528,12.1,12.1,0,0,0-8.671.371,12.268,12.268,0,0,1,10.6-8.9ZM15.544,37.493A10.277,10.277,0,0,0,12.249,41.8V40.219A7.562,7.562,0,0,1,19.8,32.665h1.974a1.361,1.361,0,0,0,1.357-1.255l3.27,2.616-3.27,2.616a1.361,1.361,0,0,0-1.357-1.255,10.243,10.243,0,0,0-6.232,2.105ZM30.719,49.115l4.392,8.049H33.556l-1.423-2.623A1.361,1.361,0,0,0,30.285,54a1.359,1.359,0,0,1-1.043.11,1.329,1.329,0,0,1-.8-.64A1.361,1.361,0,0,0,26.6,52.92L18.8,57.164H15.946Zm7.39,23.02H27.221a2.722,2.722,0,0,1,0-5.444H38.109Zm-7.65-14.972H24.5l2.412-1.314a4.117,4.117,0,0,0,3.373.985Zm-11.4,21.777H9.527A1.362,1.362,0,0,1,8.166,77.58V61.247a1.362,1.362,0,0,1,1.361-1.361H36.748a1.362,1.362,0,0,1,1.361,1.361v2.722H27.221a5.444,5.444,0,1,0,0,10.888H38.109V77.58a1.362,1.362,0,0,1-1.361,1.361Zm21.526,0a4.034,4.034,0,0,0,.251-1.361V61.247a4.083,4.083,0,0,0-2.423-3.723L32.458,46.617a1.359,1.359,0,0,0-1.846-.543l-10.2,5.555V39.47a1.361,1.361,0,0,0,2.212,1.063l6.805-5.444a1.361,1.361,0,0,0,0-2.125l-.373-.3h4.966A1.361,1.361,0,0,0,35.387,31.3V25.86A1.361,1.361,0,0,0,34.026,24.5H28.582a1.361,1.361,0,0,0-1.361,1.361v5.334l-4.594-3.675a1.361,1.361,0,0,0-2.212,1.063V20.5a9.559,9.559,0,0,1,10.188-.28,1.361,1.361,0,0,0,2.043-1.388l-.367-2.24a9.6,9.6,0,0,1,2.812-8.427h31.6V74.858a6.772,6.772,0,0,0,1.364,4.083Zm-10.638-49V27.221h2.722v2.722ZM77.58,74.858a4.083,4.083,0,1,1-8.166,0V63.969H77.58Z"/>
        <circle id="Ellipse_12492" data-name="Ellipse 12492" cx="1.361" cy="1.361" r="1.361" transform="translate(25.86 68.052)"/>
        <path id="Path_1334289" data-name="Path 1334289" d="M59.886,17.694V14.972h1.361a1.361,1.361,0,1,0,0-2.722H59.886a1.361,1.361,0,0,0-2.722,0,4.083,4.083,0,0,0,0,8.166v2.722H55.8a1.361,1.361,0,1,0,0,2.722h1.361a1.361,1.361,0,1,0,2.722,0,4.083,4.083,0,1,0,0-8.166ZM55.8,16.333a1.362,1.362,0,0,1,1.361-1.361v2.722A1.362,1.362,0,0,1,55.8,16.333Zm4.083,6.805V20.416a1.361,1.361,0,0,1,0,2.722Z"/>
        <path id="Path_1334290" data-name="Path 1334290" d="M39.47,28.582h6.805a1.361,1.361,0,1,0,0-2.722H39.47a1.361,1.361,0,0,0,0,2.722Z"/>
        <path id="Path_1334291" data-name="Path 1334291" d="M58.525,29.943H39.47a1.361,1.361,0,0,0,0,2.722H58.525a1.361,1.361,0,1,0,0-2.722Z"/>
        <path id="Path_1334292" data-name="Path 1334292" d="M34.026,36.748H28.582a1.361,1.361,0,0,0-1.361,1.361v5.444a1.361,1.361,0,0,0,1.361,1.361h5.444a1.361,1.361,0,0,0,1.361-1.361V38.109A1.361,1.361,0,0,0,34.026,36.748Zm-1.361,5.444H29.943V39.47h2.722Z"/>
        <path id="Path_1334293" data-name="Path 1334293" d="M39.47,40.831h6.805a1.361,1.361,0,1,0,0-2.722H39.47a1.361,1.361,0,0,0,0,2.722Z"/>
        <path id="Path_1334294" data-name="Path 1334294" d="M58.525,42.193H39.47a1.361,1.361,0,0,0,0,2.722H58.525a1.361,1.361,0,1,0,0-2.722Z"/>
        <path id="Path_1334295" data-name="Path 1334295" d="M39.47,53.081h6.805a1.361,1.361,0,0,0,0-2.722H39.47a1.361,1.361,0,0,0,0,2.722Z"/>
        <path id="Path_1334296" data-name="Path 1334296" d="M58.525,54.442H39.47a1.361,1.361,0,0,0,0,2.722H58.525a1.361,1.361,0,1,0,0-2.722Z"/>
        <path id="Path_1334297" data-name="Path 1334297" d="M44.915,65.33h1.361a1.361,1.361,0,1,0,0-2.722H44.915a1.361,1.361,0,1,0,0,2.722Z"/>
        <path id="Path_1334298" data-name="Path 1334298" d="M58.525,66.691H44.915a1.361,1.361,0,1,0,0,2.722h13.61a1.361,1.361,0,1,0,0-2.722Z"/>
      </g>
    </g>
  </g>
</svg>
