<svg xmlns="http://www.w3.org/2000/svg" xmlns:xlink="http://www.w3.org/1999/xlink" width="85" height="86.014" viewBox="0 0 85 86.014">
  <defs>
    <clipPath id="clip-path">
      <rect id="Rectangle_430838" data-name="Rectangle 430838" width="76.219" height="76.219" transform="translate(822.732 8179.871)" fill="#fff" stroke="#707070" stroke-width="1"/>
    </clipPath>
    <clipPath id="clip-path-2">
      <path id="path2830" d="M0-76.219H76.219V0H0Z"/>
    </clipPath>
  </defs>
  <g id="Group_1247042" data-name="Group 1247042" transform="translate(-813.951 -8170.076)">
    <g id="Rectangle_430837" data-name="Rectangle 430837" transform="translate(813.951 8170.077)" fill="#f7f700" stroke="#acac00" stroke-width="3">
      <rect width="70" height="70" rx="10" stroke="none"/>
      <rect x="1.5" y="1.5" width="67" height="67" rx="8.5" fill="none"/>
    </g>
    <g id="Mask_Group_1099519" data-name="Mask Group 1099519" clip-path="url(#clip-path)">
      <g id="g2820" transform="translate(822.732 8256.09)">
        <g id="g2822" transform="translate(10.31 -35.261)">
          <path id="path2824" d="M0,0H0Z" fill="#e9a52d"/>
        </g>
        <g id="g2826">
          <g id="g2828" clip-path="url(#clip-path-2)">
            <g id="g2834" transform="translate(9.337 -65.127)">
              <path id="path2836" d="M0,0V29.865H7.566V0a.76.76,0,0,0-.76-.759H.76A.76.76,0,0,0,0,0" fill="#6dc17d"/>
            </g>
            <g id="g2838" transform="translate(26.057 -60.023)">
              <path id="path2840" d="M0,0V24.761H7.565V0a.76.76,0,0,0-.76-.76H.759A.76.76,0,0,0,0,0" fill="#e9a52d"/>
            </g>
            <g id="g2842" transform="translate(42.777 -54.919)">
              <path id="path2844" d="M0,0V19.657H7.565V0a.76.76,0,0,0-.76-.76H.76A.76.76,0,0,0,0,0" fill="#5392f9"/>
            </g>
            <g id="g2846" transform="translate(59.497 -49.814)">
              <path id="path2848" d="M0,0V14.553H7.565V0a.76.76,0,0,0-.76-.76H.76A.76.76,0,0,0,0,0" fill="#91dafa"/>
            </g>
            <g id="g2850" transform="translate(4.78 -7.943)">
              <path id="path2852" d="M0,0V-42.6a1.368,1.368,0,0,1,1.368-1.368H30.421A1.368,1.368,0,0,1,31.789-42.6V0a1.368,1.368,0,0,1-1.368,1.368H1.368A1.368,1.368,0,0,1,0,0" fill="#5392f9"/>
            </g>
            <g id="g2854" transform="translate(35.201 -51.911)">
              <path id="path2856" d="M0,0H-4.019A1.368,1.368,0,0,1-2.651,1.368v42.6a1.368,1.368,0,0,1-1.368,1.368H0a1.368,1.368,0,0,0,1.368-1.368V1.368A1.368,1.368,0,0,0,0,0" fill="#4071f7"/>
            </g>
            <g id="g2858" transform="translate(11.128 -44.002)">
              <path id="path2860" d="M0,0V4.078a.858.858,0,0,0,.858.858H18.237a.858.858,0,0,0,.858-.858V0a.858.858,0,0,0-.858-.858H.858A.858.858,0,0,0,0,0" fill="#f7f3f1"/>
            </g>
            <g id="g2862" transform="translate(29.365 -13.625)">
              <path id="path2864" d="M0,0H-17.379a.858.858,0,0,1-.858-.858V-18.236a.858.858,0,0,1,.858-.858H0a.858.858,0,0,1,.858.858V-.858A.858.858,0,0,1,0,0" fill="#91dafa"/>
            </g>
            <g id="g2866" transform="translate(20.674 -32.72)">
              <path id="path2868" d="M0,0V9.548H-9.547V.858A.857.857,0,0,1-8.689,0Z" fill="#f7f3f1"/>
            </g>
            <g id="g2870" transform="translate(30.222 -23.172)">
              <path id="path2872" d="M0,0V8.689a.858.858,0,0,1-.858.858h-8.69V0Z" fill="#6cbff8"/>
            </g>
            <g id="g2874" transform="translate(54.315 -24.191)">
              <path id="path2876" d="M0,0A11.537,11.537,0,0,0-11.537,11.537,11.537,11.537,0,0,0,0,23.075,11.537,11.537,0,0,0,11.537,11.537,11.537,11.537,0,0,0,0,0" fill="#e9a52d"/>
            </g>
            <g id="g2878" transform="translate(54.315 -24.191)">
              <path id="path2880" d="M0,0A11.594,11.594,0,0,0-2.01.178,11.538,11.538,0,0,1,7.518,11.537,11.538,11.538,0,0,1-2.01,22.9,11.594,11.594,0,0,0,0,23.075,11.537,11.537,0,0,0,11.537,11.537,11.537,11.537,0,0,0,0,0" fill="#e38523"/>
            </g>
            <g id="g2882" transform="translate(71.438 -35.262)">
              <path id="path2884" d="M0,0H-34.868" fill="none" stroke="#000" stroke-linecap="round" stroke-linejoin="round" stroke-miterlimit="10" stroke-width="2.233"/>
            </g>
            <g id="g2886" transform="translate(16.903 -51.911)">
              <path id="path2888" d="M0,0V-13.216a.759.759,0,0,0-.76-.759H-6.806a.759.759,0,0,0-.76.759V0" fill="none" stroke="#000" stroke-linecap="round" stroke-linejoin="round" stroke-miterlimit="10" stroke-width="2.233"/>
            </g>
            <g id="g2890" transform="translate(33.623 -51.911)">
              <path id="path2892" d="M0,0V-8.112a.76.76,0,0,0-.76-.76H-6.806a.76.76,0,0,0-.759.76V0" fill="none" stroke="#000" stroke-linecap="round" stroke-linejoin="round" stroke-miterlimit="10" stroke-width="2.233"/>
            </g>
            <g id="g2894" transform="translate(42.777 -54.919)">
              <path id="path2896" d="M0,0V19.657H7.565V0a.76.76,0,0,0-.76-.76H.76A.76.76,0,0,0,0,0Z" fill="none" stroke="#000" stroke-linecap="round" stroke-linejoin="round" stroke-miterlimit="10" stroke-width="2.233"/>
            </g>
            <g id="g2898" transform="translate(59.497 -49.814)">
              <path id="path2900" d="M0,0V14.553H7.565V0a.76.76,0,0,0-.76-.76H.76A.76.76,0,0,0,0,0Z" fill="none" stroke="#000" stroke-linecap="round" stroke-linejoin="round" stroke-miterlimit="10" stroke-width="2.233"/>
            </g>
            <g id="g2902" transform="translate(4.78 -41.672)">
              <path id="path2904" d="M0,0V-8.87a1.368,1.368,0,0,1,1.368-1.368H30.421A1.368,1.368,0,0,1,31.789-8.87v42.6A1.368,1.368,0,0,1,30.421,35.1H1.368A1.368,1.368,0,0,1,0,33.729V5.21" fill="none" stroke="#000" stroke-linecap="round" stroke-linejoin="round" stroke-miterlimit="10" stroke-width="2.233"/>
            </g>
            <g id="g2906" transform="translate(11.128 -44.002)">
              <path id="path2908" d="M0,0V4.078a.858.858,0,0,0,.858.858H18.237a.858.858,0,0,0,.858-.858V0a.858.858,0,0,0-.858-.858H.858A.858.858,0,0,0,0,0Z" fill="none" stroke="#000" stroke-linecap="round" stroke-linejoin="round" stroke-miterlimit="10" stroke-width="2.233"/>
            </g>
            <g id="g2910" transform="translate(29.365 -13.625)">
              <path id="path2912" d="M0,0H-17.379a.858.858,0,0,1-.858-.858V-18.236a.858.858,0,0,1,.858-.858H0a.858.858,0,0,1,.858.858V-.858A.858.858,0,0,1,0,0Z" fill="none" stroke="#000" stroke-linecap="round" stroke-linejoin="round" stroke-miterlimit="10" stroke-width="2.233"/>
            </g>
            <g id="g2914" transform="translate(20.674 -32.72)">
              <path id="path2916" d="M0,0V19.095" fill="none" stroke="#000" stroke-linecap="round" stroke-linejoin="round" stroke-miterlimit="10" stroke-width="2.233"/>
            </g>
            <g id="g2918" transform="translate(30.222 -23.172)">
              <path id="path2920" d="M0,0H-19.095" fill="none" stroke="#000" stroke-linecap="round" stroke-linejoin="round" stroke-miterlimit="10" stroke-width="2.233"/>
            </g>
            <g id="g2922" transform="translate(64.794 -7.82)">
              <path id="path2924" d="M0,0A11.494,11.494,0,0,0,1.059-4.834,11.538,11.538,0,0,0-10.479-16.372,11.538,11.538,0,0,0-22.016-4.834,11.538,11.538,0,0,0-10.479,6.7,11.489,11.489,0,0,0-3.171,4.094" fill="none" stroke="#000" stroke-linecap="round" stroke-linejoin="round" stroke-miterlimit="10" stroke-width="2.233"/>
            </g>
            <g id="g2926" transform="translate(57.185 -16.564)">
              <path id="path2928" d="M0,0A4.489,4.489,0,0,0-3.849-.857c-1.912.576-2.247,2.893-.8,3.683A22.019,22.019,0,0,0-1.782,3.987C1.843,5.324.282,8.83-2.636,8.83a4.648,4.648,0,0,1-3.43-1.459" fill="none" stroke="#000" stroke-linecap="round" stroke-linejoin="round" stroke-miterlimit="10" stroke-width="2.233"/>
            </g>
            <g id="g2930" transform="translate(54.315 -5.801)">
              <path id="path2932" d="M0,0V-1.939" fill="none" stroke="#000" stroke-linecap="round" stroke-linejoin="round" stroke-miterlimit="10" stroke-width="2.233"/>
            </g>
            <g id="g2934" transform="translate(54.315 -17.574)">
              <path id="path2936" d="M0,0V-1.932" fill="none" stroke="#000" stroke-linecap="round" stroke-linejoin="round" stroke-miterlimit="10" stroke-width="2.233"/>
            </g>
            <g id="g2938" transform="translate(68.196 -60.699)">
              <path id="path2940" d="M0,0-55.644-14.4" fill="none" stroke="#000" stroke-linecap="round" stroke-linejoin="round" stroke-miterlimit="10" stroke-width="2.233"/>
            </g>
            <g id="g2942" transform="translate(64.938 -66.311)">
              <path id="path2944" d="M0,0,3.156,4.963a.824.824,0,0,1-.3,1.166L-2.314,8.938" fill="none" stroke="#000" stroke-linecap="round" stroke-linejoin="round" stroke-miterlimit="10" stroke-width="2.233"/>
            </g>
          </g>
        </g>
      </g>
    </g>
  </g>
</svg>
